<svg width="1283" height="314" viewBox="0 0 1283 314" fill="none" xmlns="http://www.w3.org/2000/svg">
<g filter="url(#filter0_ddddddi_35_52)">
<path d="M70.5682 209H10.125V51.9091H69.9545C86.1136 51.9091 100.074 55.054 111.835 61.3438C123.648 67.5824 132.75 76.5824 139.142 88.3438C145.585 100.054 148.807 114.091 148.807 130.455C148.807 146.818 145.611 160.881 139.219 172.642C132.827 184.352 123.776 193.352 112.065 199.642C100.355 205.881 86.5227 209 70.5682 209ZM52.7727 172.795H69.0341C76.8068 172.795 83.429 171.543 88.9006 169.037C94.4233 166.531 98.6165 162.21 101.48 156.074C104.395 149.937 105.852 141.398 105.852 130.455C105.852 119.511 104.369 110.972 101.403 104.835C98.4886 98.6989 94.1932 94.3778 88.517 91.8722C82.892 89.3665 75.9886 88.1136 67.8068 88.1136H52.7727V172.795ZM164.219 209V51.9091H277.435V86.2727H206.867V113.273H271.605V147.636H206.867V174.636H277.128V209H164.219ZM378.948 101C378.539 95.8864 376.621 91.8977 373.195 89.0341C369.82 86.1704 364.681 84.7386 357.778 84.7386C353.38 84.7386 349.775 85.2756 346.962 86.3494C344.201 87.3722 342.155 88.7784 340.826 90.5682C339.496 92.3579 338.806 94.4034 338.755 96.7045C338.653 98.5966 338.985 100.31 339.752 101.844C340.57 103.327 341.849 104.682 343.587 105.909C345.326 107.085 347.55 108.159 350.261 109.131C352.971 110.102 356.192 110.972 359.925 111.739L372.812 114.5C381.505 116.341 388.945 118.77 395.133 121.787C401.32 124.804 406.383 128.358 410.32 132.449C414.258 136.489 417.147 141.04 418.988 146.102C420.88 151.165 421.851 156.687 421.903 162.67C421.851 173 419.269 181.744 414.155 188.903C409.042 196.062 401.729 201.509 392.218 205.241C382.758 208.974 371.38 210.841 358.084 210.841C344.431 210.841 332.516 208.821 322.34 204.781C312.215 200.741 304.34 194.528 298.715 186.142C293.141 177.705 290.329 166.915 290.278 153.773H330.778C331.033 158.58 332.235 162.619 334.383 165.892C336.53 169.165 339.547 171.645 343.434 173.332C347.371 175.02 352.05 175.864 357.471 175.864C362.022 175.864 365.832 175.301 368.9 174.176C371.968 173.051 374.295 171.491 375.88 169.497C377.465 167.503 378.283 165.227 378.334 162.67C378.283 160.267 377.491 158.17 375.957 156.381C374.474 154.54 372.019 152.903 368.593 151.472C365.167 149.989 360.539 148.608 354.709 147.33L339.062 143.955C325.153 140.937 314.184 135.901 306.155 128.844C298.178 121.736 294.215 112.045 294.266 99.7727C294.215 89.8011 296.874 81.0824 302.244 73.6165C307.664 66.0994 315.155 60.2443 324.718 56.0511C334.332 51.8579 345.351 49.7614 357.778 49.7614C370.459 49.7614 381.428 51.8835 390.684 56.1278C399.94 60.3722 407.073 66.3551 412.084 74.0767C417.147 81.7472 419.704 90.7216 419.755 101H378.948ZM476.453 51.9091V209H433.806V51.9091H476.453ZM594.362 103.761C593.697 101.051 592.649 98.6733 591.217 96.6278C589.785 94.5313 587.996 92.767 585.848 91.3352C583.751 89.8523 581.297 88.7528 578.484 88.0369C575.723 87.2699 572.68 86.8864 569.356 86.8864C562.197 86.8864 556.086 88.5994 551.024 92.0256C546.013 95.4517 542.177 100.386 539.518 106.83C536.91 113.273 535.606 121.045 535.606 130.148C535.606 139.352 536.859 147.227 539.365 153.773C541.871 160.318 545.604 165.33 550.564 168.807C555.524 172.284 561.686 174.023 569.05 174.023C575.544 174.023 580.939 173.077 585.234 171.185C589.581 169.293 592.828 166.608 594.976 163.131C597.123 159.653 598.197 155.562 598.197 150.858L605.561 151.625H569.663V121.25H639.311V143.034C639.311 157.352 636.268 169.599 630.183 179.776C624.149 189.901 615.814 197.673 605.177 203.094C594.592 208.463 582.447 211.148 568.743 211.148C553.453 211.148 540.03 207.901 528.473 201.406C516.916 194.912 507.89 185.656 501.396 173.639C494.953 161.622 491.731 147.33 491.731 130.761C491.731 117.773 493.7 106.267 497.638 96.2443C501.626 86.2216 507.149 77.7585 514.206 70.8551C521.263 63.9006 529.419 58.6591 538.675 55.1307C547.93 51.5511 557.851 49.7614 568.436 49.7614C577.743 49.7614 586.385 51.0909 594.362 53.75C602.39 56.3579 609.473 60.0909 615.609 64.9489C621.797 69.7557 626.783 75.4574 630.567 82.054C634.351 88.6506 636.652 95.8864 637.47 103.761H594.362ZM790.797 51.9091V209H755.206L698.445 126.466H697.524V209H654.877V51.9091H691.081L746.922 134.136H748.149V51.9091H790.797ZM806.65 209V51.9091H919.866V86.2727H849.298V113.273H914.037V147.636H849.298V174.636H919.559V209H806.65ZM936.698 209V51.9091H1004.5C1016.16 51.9091 1026.37 54.0312 1035.11 58.2756C1043.85 62.5199 1050.65 68.6307 1055.51 76.608C1060.37 84.5852 1062.8 94.1477 1062.8 105.295C1062.8 116.545 1060.29 126.031 1055.28 133.753C1050.32 141.474 1043.34 147.304 1034.34 151.241C1025.39 155.179 1014.94 157.148 1002.97 157.148H962.47V124.011H994.379C999.391 124.011 1003.66 123.398 1007.19 122.17C1010.77 120.892 1013.5 118.872 1015.4 116.111C1017.34 113.349 1018.31 109.744 1018.31 105.295C1018.31 100.795 1017.34 97.1392 1015.4 94.3267C1013.5 91.4631 1010.77 89.3665 1007.19 88.0369C1003.66 86.6562 999.391 85.9659 994.379 85.9659H979.345V209H936.698ZM1028.74 136.898L1068.02 209H1021.69L983.334 136.898H1028.74Z" fill="#FFF7E6"/>
</g>
<g filter="url(#filter1_ii_35_52)">
<path d="M10 208.633H63.5744L85 206.5L111 198.5L120.5 193L131 184L141.5 168C141.5 168 103.629 239.479 133.67 260.647C163.711 281.816 67.6699 366.609 71.3349 261.554C75 156.5 49.5 379 49.5 267C49.5 155 39.5 265 39.5 265C39.5 265 40.543 271.534 29.528 267.3C18.513 263.067 25.0218 246.736 25.0218 246.736L24.0205 246.434H23.5198L23.0191 246.736C23.0191 246.736 15.0082 262.159 12.5048 261.857C10.0014 261.554 13.5061 263.974 11.5034 262.764C9.50068 261.554 9.50068 262.764 9.50068 262.764L9 262.462L10 208.633Z" fill="#FFF7E6"/>
</g>
<g filter="url(#filter2_i_35_52)">
<path d="M291 161L291.498 163.599L291.996 164.466L292.993 167.498L294.488 171.397L296.976 176.129L301.956 183.79L308.929 190.043L315.901 193.672L325.364 197.095L335.823 199.316L345.783 200.526H360.724H368.195L380.147 199.316L393.594 195.687L404.551 189.031L408.535 185.806L412.519 181.774L416.006 176.532L417.749 173.911L418.994 171.291L420.537 169.231L420.986 167.498L420.039 165.332L420.986 162.017L421.534 161.433C421.534 161.433 419.492 213.824 428.456 236.204C437.421 258.585 420.503 260.011 411.555 236.204C402.607 212.398 374.77 222.004 394.654 236.204C414.538 250.405 366.319 255.208 377.753 236.204C389.186 217.201 348.528 194.874 360.851 236.204C373.175 277.535 330.164 195.68 343.95 236.204C357.736 276.729 327.049 236.204 327.049 236.204C327.049 236.204 303.949 169.883 310.148 236.204C316.347 302.526 288.023 246.079 293.246 236.204C298.47 226.33 291 161 291 161Z" fill="#FFF7E6"/>
</g>
<g filter="url(#filter3_i_35_52)">
<path d="M807 208L919.5 208.5C919.5 208.5 920 209.5 919 231.765C918 254.03 914 253.193 898.5 232.259C883 211.326 856.766 208.537 863 227.48C869.286 246.581 833.5 271.893 831 239.33C828.5 206.766 814 243.5 807 227.48C800 211.459 807 208 807 208Z" fill="#FFF7E6"/>
</g>
<g filter="url(#filter4_dddi_35_52)">
<path d="M165.111 208H277.111C277.111 208 277.111 209.169 277.111 231.765C277.111 240.276 272.111 253.193 256.611 232.259C241.111 211.326 214.877 208.537 221.111 227.48C227.397 246.581 191.611 271.893 189.111 239.33C186.611 206.766 172.111 243.5 165.111 227.48C158.111 211.459 165.111 208 165.111 208Z" fill="#FFF7E6"/>
</g>
<g filter="url(#filter5_i_35_52)">
<path d="M654.967 209H697.619C697.619 209 685.855 218.825 696.754 216.785C707.653 214.745 721.415 214.869 696.754 224.435C672.092 234 668.592 213.5 655.138 224.435C641.684 235.369 646.092 219 649.592 215C653.092 211 654.967 209 654.967 209Z" fill="#FFF7E6"/>
</g>
<path d="M755.171 209H790.634C790.634 209 787.268 214.851 790.634 215.175C794 215.5 799.242 228.725 786 226.5C772.758 224.275 765.997 247.192 760.754 240C755.511 232.808 757.269 215.798 760.754 215.175C764.238 214.553 755.171 209 755.171 209Z" fill="#FFF7E6"/>
<g filter="url(#filter6_dddi_35_52)">
<path d="M434 208H476C476 208 476.333 200.931 476.5 201.5C476.642 201.985 476.691 207.898 476 230C474.5 278 443.5 215 437 230C430.5 245 434 208 434 208Z" fill="#FFF7E6"/>
</g>
<g filter="url(#filter7_i_35_52)">
<path d="M936.708 209H979.362V210.842C979.362 210.842 980 200.5 979 222C978.452 233.789 960 241.839 958.5 224.669C957 207.5 941.291 216.96 937 222C927.5 233.158 936.708 211 936.708 211V209Z" fill="#FFF7E6"/>
</g>
<g filter="url(#filter8_i_35_52)">
<path d="M1021.29 208H1067.5L1068 209V210C1068 210 1067.46 209.355 1067.09 221C1066.73 232.645 1048.09 240.839 1046.59 223.669C1045.09 206.5 1029.38 215.96 1025.09 221C1015.59 232.158 1022.29 210.355 1022.29 210.355L1021.29 208Z" fill="#FFF7E6"/>
</g>
<g filter="url(#filter9_i_35_52)">
<path d="M507.4 182L520.511 195L532.011 202L545.511 207L556.511 209.5L568.511 210L578.511 209.5L587.511 208L598.511 205L607.011 201L617.011 194L623.511 188L628.011 182C628.011 182 605.511 214.5 628.011 234.5C641.854 246.804 584.511 250.5 562.511 231.664C540.511 212.828 532.011 228.5 507.011 234.5C482.011 240.5 507.4 182 507.4 182Z" fill="#FFF7E6"/>
</g>
<defs>
<filter id="filter0_ddddddi_35_52" x="6.125" y="49.7614" width="1065.89" height="169.386" filterUnits="userSpaceOnUse" color-interpolation-filters="sRGB">
<feFlood flood-opacity="0" result="BackgroundImageFix"/>
<feColorMatrix in="SourceAlpha" type="matrix" values="0 0 0 0 0 0 0 0 0 0 0 0 0 0 0 0 0 0 127 0" result="hardAlpha"/>
<feOffset dy="4"/>
<feGaussianBlur stdDeviation="2"/>
<feComposite in2="hardAlpha" operator="out"/>
<feColorMatrix type="matrix" values="0 0 0 0 0 0 0 0 0 0 0 0 0 0 0 0 0 0 0.25 0"/>
<feBlend mode="normal" in2="BackgroundImageFix" result="effect1_dropShadow_35_52"/>
<feColorMatrix in="SourceAlpha" type="matrix" values="0 0 0 0 0 0 0 0 0 0 0 0 0 0 0 0 0 0 127 0" result="hardAlpha"/>
<feOffset dy="4"/>
<feGaussianBlur stdDeviation="2"/>
<feComposite in2="hardAlpha" operator="out"/>
<feColorMatrix type="matrix" values="0 0 0 0 0 0 0 0 0 0 0 0 0 0 0 0 0 0 0.25 0"/>
<feBlend mode="normal" in2="effect1_dropShadow_35_52" result="effect2_dropShadow_35_52"/>
<feColorMatrix in="SourceAlpha" type="matrix" values="0 0 0 0 0 0 0 0 0 0 0 0 0 0 0 0 0 0 127 0" result="hardAlpha"/>
<feOffset dy="4"/>
<feGaussianBlur stdDeviation="2"/>
<feComposite in2="hardAlpha" operator="out"/>
<feColorMatrix type="matrix" values="0 0 0 0 0 0 0 0 0 0 0 0 0 0 0 0 0 0 0.25 0"/>
<feBlend mode="normal" in2="effect2_dropShadow_35_52" result="effect3_dropShadow_35_52"/>
<feColorMatrix in="SourceAlpha" type="matrix" values="0 0 0 0 0 0 0 0 0 0 0 0 0 0 0 0 0 0 127 0" result="hardAlpha"/>
<feOffset dy="4"/>
<feGaussianBlur stdDeviation="2"/>
<feComposite in2="hardAlpha" operator="out"/>
<feColorMatrix type="matrix" values="0 0 0 0 0 0 0 0 0 0 0 0 0 0 0 0 0 0 0.25 0"/>
<feBlend mode="normal" in2="effect3_dropShadow_35_52" result="effect4_dropShadow_35_52"/>
<feColorMatrix in="SourceAlpha" type="matrix" values="0 0 0 0 0 0 0 0 0 0 0 0 0 0 0 0 0 0 127 0" result="hardAlpha"/>
<feOffset dy="4"/>
<feGaussianBlur stdDeviation="2"/>
<feComposite in2="hardAlpha" operator="out"/>
<feColorMatrix type="matrix" values="0 0 0 0 0 0 0 0 0 0 0 0 0 0 0 0 0 0 0.25 0"/>
<feBlend mode="normal" in2="effect4_dropShadow_35_52" result="effect5_dropShadow_35_52"/>
<feColorMatrix in="SourceAlpha" type="matrix" values="0 0 0 0 0 0 0 0 0 0 0 0 0 0 0 0 0 0 127 0" result="hardAlpha"/>
<feOffset dy="4"/>
<feGaussianBlur stdDeviation="2"/>
<feComposite in2="hardAlpha" operator="out"/>
<feColorMatrix type="matrix" values="0 0 0 0 0 0 0 0 0 0 0 0 0 0 0 0 0 0 0.25 0"/>
<feBlend mode="normal" in2="effect5_dropShadow_35_52" result="effect6_dropShadow_35_52"/>
<feBlend mode="normal" in="SourceGraphic" in2="effect6_dropShadow_35_52" result="shape"/>
<feColorMatrix in="SourceAlpha" type="matrix" values="0 0 0 0 0 0 0 0 0 0 0 0 0 0 0 0 0 0 127 0" result="hardAlpha"/>
<feOffset dy="12"/>
<feGaussianBlur stdDeviation="2"/>
<feComposite in2="hardAlpha" operator="arithmetic" k2="-1" k3="1"/>
<feColorMatrix type="matrix" values="0 0 0 0 0 0 0 0 0 0 0 0 0 0 0 0 0 0 0.25 0"/>
<feBlend mode="normal" in2="shape" result="effect7_innerShadow_35_52"/>
</filter>
<filter id="filter1_ii_35_52" x="6" y="165" width="137.5" height="148.038" filterUnits="userSpaceOnUse" color-interpolation-filters="sRGB">
<feFlood flood-opacity="0" result="BackgroundImageFix"/>
<feBlend mode="normal" in="SourceGraphic" in2="BackgroundImageFix" result="shape"/>
<feColorMatrix in="SourceAlpha" type="matrix" values="0 0 0 0 0 0 0 0 0 0 0 0 0 0 0 0 0 0 127 0" result="hardAlpha"/>
<feOffset dx="2" dy="-3"/>
<feGaussianBlur stdDeviation="2"/>
<feComposite in2="hardAlpha" operator="arithmetic" k2="-1" k3="1"/>
<feColorMatrix type="matrix" values="0 0 0 0 0 0 0 0 0 0 0 0 0 0 0 0 0 0 0.42 0"/>
<feBlend mode="normal" in2="shape" result="effect1_innerShadow_35_52"/>
<feColorMatrix in="SourceAlpha" type="matrix" values="0 0 0 0 0 0 0 0 0 0 0 0 0 0 0 0 0 0 127 0" result="hardAlpha"/>
<feOffset dx="-3" dy="-3"/>
<feGaussianBlur stdDeviation="2"/>
<feComposite in2="hardAlpha" operator="arithmetic" k2="-1" k3="1"/>
<feColorMatrix type="matrix" values="0 0 0 0 0 0 0 0 0 0 0 0 0 0 0 0 0 0 0.08 0"/>
<feBlend mode="normal" in2="effect1_innerShadow_35_52" result="effect2_innerShadow_35_52"/>
</filter>
<filter id="filter2_i_35_52" x="291" y="157" width="140" height="111" filterUnits="userSpaceOnUse" color-interpolation-filters="sRGB">
<feFlood flood-opacity="0" result="BackgroundImageFix"/>
<feBlend mode="normal" in="SourceGraphic" in2="BackgroundImageFix" result="shape"/>
<feColorMatrix in="SourceAlpha" type="matrix" values="0 0 0 0 0 0 0 0 0 0 0 0 0 0 0 0 0 0 127 0" result="hardAlpha"/>
<feOffset dy="-7"/>
<feGaussianBlur stdDeviation="2"/>
<feComposite in2="hardAlpha" operator="arithmetic" k2="-1" k3="1"/>
<feColorMatrix type="matrix" values="0 0 0 0 0 0 0 0 0 0 0 0 0 0 0 0 0 0 0.25 0"/>
<feBlend mode="normal" in2="shape" result="effect1_innerShadow_35_52"/>
</filter>
<filter id="filter3_i_35_52" x="803.889" y="204" width="115.736" height="51" filterUnits="userSpaceOnUse" color-interpolation-filters="sRGB">
<feFlood flood-opacity="0" result="BackgroundImageFix"/>
<feBlend mode="normal" in="SourceGraphic" in2="BackgroundImageFix" result="shape"/>
<feColorMatrix in="SourceAlpha" type="matrix" values="0 0 0 0 0 0 0 0 0 0 0 0 0 0 0 0 0 0 127 0" result="hardAlpha"/>
<feOffset dy="-4"/>
<feGaussianBlur stdDeviation="2"/>
<feComposite in2="hardAlpha" operator="arithmetic" k2="-1" k3="1"/>
<feColorMatrix type="matrix" values="0 0 0 0 0 0 0 0 0 0 0 0 0 0 0 0 0 0 0.25 0"/>
<feBlend mode="normal" in2="shape" result="effect1_innerShadow_35_52"/>
</filter>
<filter id="filter4_dddi_35_52" x="158" y="204" width="123.111" height="59" filterUnits="userSpaceOnUse" color-interpolation-filters="sRGB">
<feFlood flood-opacity="0" result="BackgroundImageFix"/>
<feColorMatrix in="SourceAlpha" type="matrix" values="0 0 0 0 0 0 0 0 0 0 0 0 0 0 0 0 0 0 127 0" result="hardAlpha"/>
<feOffset dy="4"/>
<feGaussianBlur stdDeviation="2"/>
<feComposite in2="hardAlpha" operator="out"/>
<feColorMatrix type="matrix" values="0 0 0 0 0 0 0 0 0 0 0 0 0 0 0 0 0 0 0.25 0"/>
<feBlend mode="normal" in2="BackgroundImageFix" result="effect1_dropShadow_35_52"/>
<feColorMatrix in="SourceAlpha" type="matrix" values="0 0 0 0 0 0 0 0 0 0 0 0 0 0 0 0 0 0 127 0" result="hardAlpha"/>
<feOffset dy="4"/>
<feGaussianBlur stdDeviation="2"/>
<feComposite in2="hardAlpha" operator="out"/>
<feColorMatrix type="matrix" values="0 0 0 0 0 0 0 0 0 0 0 0 0 0 0 0 0 0 0.25 0"/>
<feBlend mode="normal" in2="effect1_dropShadow_35_52" result="effect2_dropShadow_35_52"/>
<feColorMatrix in="SourceAlpha" type="matrix" values="0 0 0 0 0 0 0 0 0 0 0 0 0 0 0 0 0 0 127 0" result="hardAlpha"/>
<feOffset dy="4"/>
<feGaussianBlur stdDeviation="2"/>
<feComposite in2="hardAlpha" operator="out"/>
<feColorMatrix type="matrix" values="0 0 0 0 0 0 0 0 0 0 0 0 0 0 0 0 0 0 0.25 0"/>
<feBlend mode="normal" in2="effect2_dropShadow_35_52" result="effect3_dropShadow_35_52"/>
<feBlend mode="normal" in="SourceGraphic" in2="effect3_dropShadow_35_52" result="shape"/>
<feColorMatrix in="SourceAlpha" type="matrix" values="0 0 0 0 0 0 0 0 0 0 0 0 0 0 0 0 0 0 127 0" result="hardAlpha"/>
<feOffset dy="-7"/>
<feGaussianBlur stdDeviation="2"/>
<feComposite in2="hardAlpha" operator="arithmetic" k2="-1" k3="1"/>
<feColorMatrix type="matrix" values="0 0 0 0 0 0 0 0 0 0 0 0 0 0 0 0 0 0 0.25 0"/>
<feBlend mode="normal" in2="shape" result="effect4_innerShadow_35_52"/>
</filter>
<filter id="filter5_i_35_52" x="646" y="209" width="64.5558" height="23.1384" filterUnits="userSpaceOnUse" color-interpolation-filters="sRGB">
<feFlood flood-opacity="0" result="BackgroundImageFix"/>
<feBlend mode="normal" in="SourceGraphic" in2="BackgroundImageFix" result="shape"/>
<feColorMatrix in="SourceAlpha" type="matrix" values="0 0 0 0 0 0 0 0 0 0 0 0 0 0 0 0 0 0 127 0" result="hardAlpha"/>
<feOffset dy="5"/>
<feGaussianBlur stdDeviation="2"/>
<feComposite in2="hardAlpha" operator="arithmetic" k2="-1" k3="1"/>
<feColorMatrix type="matrix" values="0 0 0 0 1 0 0 0 0 0.968627 0 0 0 0 0.901961 0 0 0 1 0"/>
<feBlend mode="normal" in2="shape" result="effect1_innerShadow_35_52"/>
</filter>
<filter id="filter6_dddi_35_52" x="429.059" y="197.467" width="51.5282" height="58.8998" filterUnits="userSpaceOnUse" color-interpolation-filters="sRGB">
<feFlood flood-opacity="0" result="BackgroundImageFix"/>
<feColorMatrix in="SourceAlpha" type="matrix" values="0 0 0 0 0 0 0 0 0 0 0 0 0 0 0 0 0 0 127 0" result="hardAlpha"/>
<feOffset dy="4"/>
<feGaussianBlur stdDeviation="2"/>
<feComposite in2="hardAlpha" operator="out"/>
<feColorMatrix type="matrix" values="0 0 0 0 0 0 0 0 0 0 0 0 0 0 0 0 0 0 0.25 0"/>
<feBlend mode="normal" in2="BackgroundImageFix" result="effect1_dropShadow_35_52"/>
<feColorMatrix in="SourceAlpha" type="matrix" values="0 0 0 0 0 0 0 0 0 0 0 0 0 0 0 0 0 0 127 0" result="hardAlpha"/>
<feOffset dy="4"/>
<feGaussianBlur stdDeviation="2"/>
<feComposite in2="hardAlpha" operator="out"/>
<feColorMatrix type="matrix" values="0 0 0 0 0 0 0 0 0 0 0 0 0 0 0 0 0 0 0.25 0"/>
<feBlend mode="normal" in2="effect1_dropShadow_35_52" result="effect2_dropShadow_35_52"/>
<feColorMatrix in="SourceAlpha" type="matrix" values="0 0 0 0 0 0 0 0 0 0 0 0 0 0 0 0 0 0 127 0" result="hardAlpha"/>
<feOffset dy="4"/>
<feGaussianBlur stdDeviation="2"/>
<feComposite in2="hardAlpha" operator="out"/>
<feColorMatrix type="matrix" values="0 0 0 0 0 0 0 0 0 0 0 0 0 0 0 0 0 0 0.25 0"/>
<feBlend mode="normal" in2="effect2_dropShadow_35_52" result="effect3_dropShadow_35_52"/>
<feBlend mode="normal" in="SourceGraphic" in2="effect3_dropShadow_35_52" result="shape"/>
<feColorMatrix in="SourceAlpha" type="matrix" values="0 0 0 0 0 0 0 0 0 0 0 0 0 0 0 0 0 0 127 0" result="hardAlpha"/>
<feOffset dy="-7"/>
<feGaussianBlur stdDeviation="2"/>
<feComposite in2="hardAlpha" operator="arithmetic" k2="-1" k3="1"/>
<feColorMatrix type="matrix" values="0 0 0 0 0 0 0 0 0 0 0 0 0 0 0 0 0 0 0.25 0"/>
<feBlend mode="normal" in2="shape" result="effect4_innerShadow_35_52"/>
</filter>
<filter id="filter7_i_35_52" x="932.701" y="204.355" width="46.8619" height="30.1951" filterUnits="userSpaceOnUse" color-interpolation-filters="sRGB">
<feFlood flood-opacity="0" result="BackgroundImageFix"/>
<feBlend mode="normal" in="SourceGraphic" in2="BackgroundImageFix" result="shape"/>
<feColorMatrix in="SourceAlpha" type="matrix" values="0 0 0 0 0 0 0 0 0 0 0 0 0 0 0 0 0 0 127 0" result="hardAlpha"/>
<feOffset dy="-4"/>
<feGaussianBlur stdDeviation="2"/>
<feComposite in2="hardAlpha" operator="arithmetic" k2="-1" k3="1"/>
<feColorMatrix type="matrix" values="0 0 0 0 0 0 0 0 0 0 0 0 0 0 0 0 0 0 0.25 0"/>
<feBlend mode="normal" in2="shape" result="effect1_innerShadow_35_52"/>
</filter>
<filter id="filter8_i_35_52" x="1016" y="205" width="52" height="28.5073" filterUnits="userSpaceOnUse" color-interpolation-filters="sRGB">
<feFlood flood-opacity="0" result="BackgroundImageFix"/>
<feBlend mode="normal" in="SourceGraphic" in2="BackgroundImageFix" result="shape"/>
<feColorMatrix in="SourceAlpha" type="matrix" values="0 0 0 0 0 0 0 0 0 0 0 0 0 0 0 0 0 0 127 0" result="hardAlpha"/>
<feOffset dx="-6" dy="-3"/>
<feGaussianBlur stdDeviation="2"/>
<feComposite in2="hardAlpha" operator="arithmetic" k2="-1" k3="1"/>
<feColorMatrix type="matrix" values="0 0 0 0 0 0 0 0 0 0 0 0 0 0 0 0 0 0 0.25 0"/>
<feBlend mode="normal" in2="shape" result="effect1_innerShadow_35_52"/>
</filter>
<filter id="filter9_i_35_52" x="496" y="178" width="134.14" height="66.7618" filterUnits="userSpaceOnUse" color-interpolation-filters="sRGB">
<feFlood flood-opacity="0" result="BackgroundImageFix"/>
<feBlend mode="normal" in="SourceGraphic" in2="BackgroundImageFix" result="shape"/>
<feColorMatrix in="SourceAlpha" type="matrix" values="0 0 0 0 0 0 0 0 0 0 0 0 0 0 0 0 0 0 127 0" result="hardAlpha"/>
<feOffset dy="-7"/>
<feGaussianBlur stdDeviation="2"/>
<feComposite in2="hardAlpha" operator="arithmetic" k2="-1" k3="1"/>
<feColorMatrix type="matrix" values="0 0 0 0 0 0 0 0 0 0 0 0 0 0 0 0 0 0 0.25 0"/>
<feBlend mode="normal" in2="shape" result="effect1_innerShadow_35_52"/>
</filter>
</defs>
</svg>
